STARTFONT 2.1
FONT -Monotype-Plantin-Regular-R-Normal--10-100-75-75-P-55-iso8859-5
SIZE 10 75 75
FONTBOUNDINGBOX 12 12 -1 -2

STARTPROPERTIES 24
FOUNDRY "Monotype"
FAMILY_NAME "Plantin"
WEIGHT_NAME "Regular"
SLANT "R"
SETWIDTH_NAME "Normal"
ADD_STYLE_NAME ""
PIXEL_SIZE 10
POINT_SIZE 100
RESOLUTION_X 75
RESOLUTION_Y 75
SPACING "P"
AVERAGE_WIDTH 55
CHARSET_REGISTRY "iso8859"
CHARSET_ENCODING "5"
FACE_NAME "Plantin ISO Latin Cyrillic"
_DEC_DEVICE_FONTNAMES "PS=plantin-latcyrillic"
COPYRIGHT "Copyright (c) 1994 Monotype Typography Ltd."
CAP_HEIGHT 8
X_HEIGHT 5
WEIGHT 10
QUAD_WIDTH 7
DEFAULT_CHAR 160
FONT_DESCENT 2
FONT_ASCENT 10
ENDPROPERTIES

CHARS 191

STARTCHAR space
ENCODING 32
SWIDTH 250 0
DWIDTH 3 0
BBX 0 0 0 0
BITMAP
ENDCHAR

STARTCHAR exclam
ENCODING 33
SWIDTH 292 0
DWIDTH 3 0
BBX 1 7 1 0
BITMAP
80
80
80
80
80
00
80
ENDCHAR

STARTCHAR quotedbl
ENCODING 34
SWIDTH 406 0
DWIDTH 4 0
BBX 3 3 0 4
BITMAP
A0
A0
A0
ENDCHAR

STARTCHAR numbersign
ENCODING 35
SWIDTH 500 0
DWIDTH 5 0
BBX 6 7 0 0
BITMAP
28
28
FC
50
F8
50
50
ENDCHAR

STARTCHAR dollar
ENCODING 36
SWIDTH 552 0
DWIDTH 6 0
BBX 5 8 0 -1
BITMAP
50
78
D0
F0
58
58
F0
50
ENDCHAR

STARTCHAR percent
ENCODING 37
SWIDTH 875 0
DWIDTH 9 0
BBX 8 7 0 0
BITMAP
44
A4
A8
4A
15
25
22
ENDCHAR

STARTCHAR ampersand
ENCODING 38
SWIDTH 750 0
DWIDTH 8 0
BBX 7 7 0 0
BITMAP
20
50
60
6E
94
98
6C
ENDCHAR

STARTCHAR quoteright
ENCODING 39
SWIDTH 292 0
DWIDTH 3 0
BBX 2 3 0 4
BITMAP
40
40
80
ENDCHAR

STARTCHAR parenleft
ENCODING 40
SWIDTH 385 0
DWIDTH 4 0
BBX 3 9 0 -2
BITMAP
20
40
40
80
80
80
40
40
20
ENDCHAR

STARTCHAR parenright
ENCODING 41
SWIDTH 385 0
DWIDTH 4 0
BBX 3 9 0 -2
BITMAP
80
40
40
20
20
20
40
40
80
ENDCHAR

STARTCHAR asterisk
ENCODING 42
SWIDTH 500 0
DWIDTH 5 0
BBX 5 4 0 3
BITMAP
20
F8
20
50
ENDCHAR

STARTCHAR plus
ENCODING 43
SWIDTH 667 0
DWIDTH 7 0
BBX 5 5 1 1
BITMAP
20
20
F8
20
20
ENDCHAR

STARTCHAR comma
ENCODING 44
SWIDTH 292 0
DWIDTH 3 0
BBX 2 3 0 -2
BITMAP
40
40
80
ENDCHAR

STARTCHAR minus
ENCODING 45
SWIDTH 667 0
DWIDTH 7 0
BBX 5 1 1 3
BITMAP
F8
ENDCHAR

STARTCHAR period
ENCODING 46
SWIDTH 292 0
DWIDTH 3 0
BBX 1 1 1 0
BITMAP
80
ENDCHAR

STARTCHAR slash
ENCODING 47
SWIDTH 281 0
DWIDTH 3 0
BBX 3 7 0 0
BITMAP
20
20
40
40
40
80
80
ENDCHAR

STARTCHAR zero
ENCODING 48
SWIDTH 552 0
DWIDTH 6 0
BBX 4 7 1 0
BITMAP
60
90
90
90
90
90
60
ENDCHAR

STARTCHAR one
ENCODING 49
SWIDTH 552 0
DWIDTH 6 0
BBX 3 7 2 0
BITMAP
C0
40
40
40
40
40
E0
ENDCHAR

STARTCHAR two
ENCODING 50
SWIDTH 552 0
DWIDTH 6 0
BBX 5 7 1 0
BITMAP
60
90
10
10
20
48
F0
ENDCHAR

STARTCHAR three
ENCODING 51
SWIDTH 552 0
DWIDTH 6 0
BBX 4 7 1 0
BITMAP
60
90
10
60
10
90
60
ENDCHAR

STARTCHAR four
ENCODING 52
SWIDTH 552 0
DWIDTH 6 0
BBX 5 7 0 0
BITMAP
10
30
50
90
F8
10
38
ENDCHAR

STARTCHAR five
ENCODING 53
SWIDTH 552 0
DWIDTH 6 0
BBX 4 7 1 0
BITMAP
F0
80
E0
10
10
90
60
ENDCHAR

STARTCHAR six
ENCODING 54
SWIDTH 552 0
DWIDTH 6 0
BBX 4 7 1 0
BITMAP
30
40
E0
90
90
90
60
ENDCHAR

STARTCHAR seven
ENCODING 55
SWIDTH 552 0
DWIDTH 6 0
BBX 4 7 1 0
BITMAP
F0
90
20
20
40
40
40
ENDCHAR

STARTCHAR eight
ENCODING 56
SWIDTH 552 0
DWIDTH 6 0
BBX 4 7 1 0
BITMAP
60
90
90
60
90
90
60
ENDCHAR

STARTCHAR nine
ENCODING 57
SWIDTH 552 0
DWIDTH 6 0
BBX 4 7 1 0
BITMAP
60
90
90
70
10
20
C0
ENDCHAR

STARTCHAR colon
ENCODING 58
SWIDTH 292 0
DWIDTH 3 0
BBX 1 5 1 0
BITMAP
80
00
00
00
80
ENDCHAR

STARTCHAR semicolon
ENCODING 59
SWIDTH 292 0
DWIDTH 3 0
BBX 2 7 0 -2
BITMAP
40
00
00
00
40
40
80
ENDCHAR

STARTCHAR less
ENCODING 60
SWIDTH 667 0
DWIDTH 7 0
BBX 5 5 1 1
BITMAP
08
30
C0
30
08
ENDCHAR

STARTCHAR equal
ENCODING 61
SWIDTH 667 0
DWIDTH 7 0
BBX 5 3 1 2
BITMAP
F8
00
F8
ENDCHAR

STARTCHAR greater
ENCODING 62
SWIDTH 667 0
DWIDTH 7 0
BBX 5 5 1 1
BITMAP
80
60
18
60
80
ENDCHAR

STARTCHAR question
ENCODING 63
SWIDTH 385 0
DWIDTH 4 0
BBX 3 7 0 0
BITMAP
C0
20
20
C0
80
00
80
ENDCHAR

STARTCHAR at
ENCODING 64
SWIDTH 917 0
DWIDTH 9 0
BBX 9 9 0 -2
BITMAP
1F00
6080
4C80
9280
A480
AD00
9680
4100
3E00
ENDCHAR

STARTCHAR A
ENCODING 65
SWIDTH 719 0
DWIDTH 6 0
BBX 7 7 -1 0
BITMAP
10
10
28
38
44
44
EE
ENDCHAR

STARTCHAR B
ENCODING 66
SWIDTH 688 0
DWIDTH 7 0
BBX 6 7 0 0
BITMAP
F8
44
44
78
44
44
F8
ENDCHAR

STARTCHAR C
ENCODING 67
SWIDTH 781 0
DWIDTH 8 0
BBX 7 7 0 0
BITMAP
3C
42
80
80
80
42
3C
ENDCHAR

STARTCHAR D
ENCODING 68
SWIDTH 844 0
DWIDTH 8 0
BBX 7 7 0 0
BITMAP
F8
44
42
42
42
44
F8
ENDCHAR

STARTCHAR E
ENCODING 69
SWIDTH 677 0
DWIDTH 7 0
BBX 6 7 0 0
BITMAP
FC
44
40
78
40
44
FC
ENDCHAR

STARTCHAR F
ENCODING 70
SWIDTH 656 0
DWIDTH 7 0
BBX 6 7 0 0
BITMAP
FC
44
40
78
40
40
E0
ENDCHAR

STARTCHAR G
ENCODING 71
SWIDTH 833 0
DWIDTH 8 0
BBX 8 7 0 0
BITMAP
3C
42
80
87
82
42
3C
ENDCHAR

STARTCHAR H
ENCODING 72
SWIDTH 854 0
DWIDTH 9 0
BBX 8 7 0 0
BITMAP
E7
42
42
7E
42
42
E7
ENDCHAR

STARTCHAR I
ENCODING 73
SWIDTH 375 0
DWIDTH 4 0
BBX 3 7 0 0
BITMAP
E0
40
40
40
40
40
E0
ENDCHAR

STARTCHAR J
ENCODING 74
SWIDTH 354 0
DWIDTH 4 0
BBX 4 9 -1 -2
BITMAP
70
20
20
20
20
20
20
20
C0
ENDCHAR

STARTCHAR K
ENCODING 75
SWIDTH 802 0
DWIDTH 8 0
BBX 7 7 0 0
BITMAP
EE
48
50
60
50
48
EE
ENDCHAR

STARTCHAR L
ENCODING 76
SWIDTH 677 0
DWIDTH 7 0
BBX 6 7 0 0
BITMAP
E0
40
40
40
40
44
FC
ENDCHAR

STARTCHAR M
ENCODING 77
SWIDTH 1010 0
DWIDTH 10 0
BBX 9 7 0 0
BITMAP
C180
6300
6300
5500
5500
4900
EB80
ENDCHAR

STARTCHAR N
ENCODING 78
SWIDTH 844 0
DWIDTH 9 0
BBX 8 7 0 0
BITMAP
C7
62
52
5A
4A
46
E2
ENDCHAR

STARTCHAR O
ENCODING 79
SWIDTH 812 0
DWIDTH 8 0
BBX 7 7 0 0
BITMAP
38
44
82
82
82
44
38
ENDCHAR

STARTCHAR P
ENCODING 80
SWIDTH 635 0
DWIDTH 7 0
BBX 6 7 0 0
BITMAP
F8
44
44
58
40
40
E0
ENDCHAR

STARTCHAR Q
ENCODING 81
SWIDTH 812 0
DWIDTH 8 0
BBX 8 9 0 -2
BITMAP
38
44
82
82
82
44
38
18
07
ENDCHAR

STARTCHAR R
ENCODING 82
SWIDTH 719 0
DWIDTH 7 0
BBX 7 7 0 0
BITMAP
F8
44
44
78
50
48
E6
ENDCHAR

STARTCHAR S
ENCODING 83
SWIDTH 594 0
DWIDTH 6 0
BBX 5 7 0 0
BITMAP
70
88
80
70
08
88
70
ENDCHAR

STARTCHAR T
ENCODING 84
SWIDTH 760 0
DWIDTH 8 0
BBX 7 7 0 0
BITMAP
FE
92
10
10
10
10
38
ENDCHAR

STARTCHAR U
ENCODING 85
SWIDTH 833 0
DWIDTH 8 0
BBX 8 7 0 0
BITMAP
E7
42
42
42
42
42
3C
ENDCHAR

STARTCHAR V
ENCODING 86
SWIDTH 708 0
DWIDTH 6 0
BBX 7 7 -1 0
BITMAP
EE
44
44
28
28
10
10
ENDCHAR

STARTCHAR W
ENCODING 87
SWIDTH 1000 0
DWIDTH 10 0
BBX 11 7 -1 0
BITMAP
DB60
4A40
4440
2A80
2A80
1100
1100
ENDCHAR

STARTCHAR X
ENCODING 88
SWIDTH 781 0
DWIDTH 8 0
BBX 7 7 0 0
BITMAP
EE
44
28
10
28
44
EE
ENDCHAR

STARTCHAR Y
ENCODING 89
SWIDTH 719 0
DWIDTH 6 0
BBX 7 7 -1 0
BITMAP
EE
44
28
10
10
10
38
ENDCHAR

STARTCHAR Z
ENCODING 90
SWIDTH 677 0
DWIDTH 7 0
BBX 6 7 0 0
BITMAP
FC
88
10
20
20
44
FC
ENDCHAR

STARTCHAR bracketleft
ENCODING 91
SWIDTH 375 0
DWIDTH 4 0
BBX 2 9 1 -2
BITMAP
C0
80
80
80
80
80
80
80
C0
ENDCHAR

STARTCHAR backslash
ENCODING 92
SWIDTH 281 0
DWIDTH 3 0
BBX 3 7 0 0
BITMAP
80
80
40
40
40
20
20
ENDCHAR

STARTCHAR bracketright
ENCODING 93
SWIDTH 375 0
DWIDTH 4 0
BBX 2 9 1 -2
BITMAP
C0
40
40
40
40
40
40
40
C0
ENDCHAR

STARTCHAR asciicircum
ENCODING 94
SWIDTH 469 0
DWIDTH 5 0
BBX 5 4 0 3
BITMAP
20
70
50
88
ENDCHAR

STARTCHAR underscore
ENCODING 95
SWIDTH 500 0
DWIDTH 5 0
BBX 5 1 0 -2
BITMAP
F8
ENDCHAR

STARTCHAR quoteleft
ENCODING 96
SWIDTH 292 0
DWIDTH 3 0
BBX 2 3 0 4
BITMAP
40
80
80
ENDCHAR

STARTCHAR a
ENCODING 97
SWIDTH 479 0
DWIDTH 5 0
BBX 5 5 0 0
BITMAP
60
10
70
B0
D8
ENDCHAR

STARTCHAR b
ENCODING 98
SWIDTH 562 0
DWIDTH 6 0
BBX 5 7 0 0
BITMAP
C0
40
70
48
48
48
30
ENDCHAR

STARTCHAR c
ENCODING 99
SWIDTH 469 0
DWIDTH 5 0
BBX 4 5 0 0
BITMAP
70
90
80
90
60
ENDCHAR

STARTCHAR d
ENCODING 100
SWIDTH 573 0
DWIDTH 5 0
BBX 5 7 0 0
BITMAP
30
10
70
90
90
90
78
ENDCHAR

STARTCHAR e
ENCODING 101
SWIDTH 469 0
DWIDTH 5 0
BBX 4 5 0 0
BITMAP
60
90
F0
80
70
ENDCHAR

STARTCHAR f
ENCODING 102
SWIDTH 312 0
DWIDTH 3 0
BBX 4 7 0 0
BITMAP
30
40
E0
40
40
40
E0
ENDCHAR

STARTCHAR g
ENCODING 103
SWIDTH 500 0
DWIDTH 5 0
BBX 5 7 0 -2
BITMAP
68
90
90
60
70
88
70
ENDCHAR

STARTCHAR h
ENCODING 104
SWIDTH 562 0
DWIDTH 6 0
BBX 6 7 0 0
BITMAP
C0
40
50
68
48
48
EC
ENDCHAR

STARTCHAR i
ENCODING 105
SWIDTH 271 0
DWIDTH 3 0
BBX 3 7 0 0
BITMAP
40
00
C0
40
40
40
E0
ENDCHAR

STARTCHAR j
ENCODING 106
SWIDTH 260 0
DWIDTH 3 0
BBX 2 9 0 -2
BITMAP
40
00
C0
40
40
40
40
40
80
ENDCHAR

STARTCHAR k
ENCODING 107
SWIDTH 510 0
DWIDTH 5 0
BBX 5 7 0 0
BITMAP
C0
40
58
50
60
50
D8
ENDCHAR

STARTCHAR l
ENCODING 108
SWIDTH 271 0
DWIDTH 3 0
BBX 3 7 0 0
BITMAP
C0
40
40
40
40
40
E0
ENDCHAR

STARTCHAR m
ENCODING 109
SWIDTH 865 0
DWIDTH 9 0
BBX 9 5 0 0
BITMAP
DB00
6D00
4900
4900
ED80
ENDCHAR

STARTCHAR n
ENCODING 110
SWIDTH 573 0
DWIDTH 6 0
BBX 6 5 0 0
BITMAP
D8
68
48
48
EC
ENDCHAR

STARTCHAR o
ENCODING 111
SWIDTH 542 0
DWIDTH 5 0
BBX 4 5 0 0
BITMAP
60
90
90
90
60
ENDCHAR

STARTCHAR p
ENCODING 112
SWIDTH 562 0
DWIDTH 6 0
BBX 5 7 0 -2
BITMAP
F0
48
48
48
70
40
E0
ENDCHAR

STARTCHAR q
ENCODING 113
SWIDTH 562 0
DWIDTH 5 0
BBX 5 7 0 -2
BITMAP
70
90
90
90
70
10
38
ENDCHAR

STARTCHAR r
ENCODING 114
SWIDTH 375 0
DWIDTH 4 0
BBX 4 5 0 0
BITMAP
D0
60
40
40
E0
ENDCHAR

STARTCHAR s
ENCODING 115
SWIDTH 396 0
DWIDTH 4 0
BBX 3 5 0 0
BITMAP
60
80
40
20
C0
ENDCHAR

STARTCHAR t
ENCODING 116
SWIDTH 333 0
DWIDTH 3 0
BBX 3 6 0 0
BITMAP
40
E0
40
40
40
20
ENDCHAR

STARTCHAR u
ENCODING 117
SWIDTH 573 0
DWIDTH 6 0
BBX 6 5 0 0
BITMAP
D8
48
48
58
6C
ENDCHAR

STARTCHAR v
ENCODING 118
SWIDTH 479 0
DWIDTH 4 0
BBX 5 5 -1 0
BITMAP
D8
50
50
20
20
ENDCHAR

STARTCHAR w
ENCODING 119
SWIDTH 729 0
DWIDTH 6 0
BBX 7 5 -1 0
BITMAP
D6
54
54
28
28
ENDCHAR

STARTCHAR x
ENCODING 120
SWIDTH 500 0
DWIDTH 6 0
BBX 5 5 0 0
BITMAP
D8
50
20
50
D8
ENDCHAR

STARTCHAR y
ENCODING 121
SWIDTH 479 0
DWIDTH 5 0
BBX 5 7 0 -2
BITMAP
D8
50
50
20
20
20
C0
ENDCHAR

STARTCHAR z
ENCODING 122
SWIDTH 437 0
DWIDTH 5 0
BBX 4 5 0 0
BITMAP
F0
10
60
80
F0
ENDCHAR

STARTCHAR braceleft
ENCODING 123
SWIDTH 479 0
DWIDTH 5 0
BBX 3 9 1 -2
BITMAP
20
40
40
40
80
40
40
40
20
ENDCHAR

STARTCHAR bar
ENCODING 124
SWIDTH 198 0
DWIDTH 2 0
BBX 1 9 0 -2
BITMAP
80
80
80
80
80
80
80
80
80
ENDCHAR

STARTCHAR braceright
ENCODING 125
SWIDTH 479 0
DWIDTH 5 0
BBX 3 9 1 -2
BITMAP
80
40
40
40
20
40
40
40
80
ENDCHAR

STARTCHAR asciitilde
ENCODING 126
SWIDTH 542 0
DWIDTH 5 0
BBX 5 2 0 2
BITMAP
68
90
ENDCHAR

STARTCHAR space
ENCODING 160
SWIDTH 250 0
DWIDTH 3 0
BBX 0 0 0 0
BITMAP
ENDCHAR

STARTCHAR afii10023
ENCODING 161
SWIDTH 677 0
DWIDTH 7 0
BBX 6 9 0 0
BITMAP
48
00
FC
44
40
78
40
44
FC
ENDCHAR

STARTCHAR afii10051
ENCODING 162
SWIDTH 823 0
DWIDTH 8 0
BBX 7 7 0 0
BITMAP
F8
A8
20
3C
22
2A
74
ENDCHAR

STARTCHAR afii10052
ENCODING 163
SWIDTH 635 0
DWIDTH 6 0
BBX 6 10 0 0
BITMAP
08
10
00
FC
44
40
40
40
40
E0
ENDCHAR

STARTCHAR afii10053
ENCODING 164
SWIDTH 729 0
DWIDTH 7 0
BBX 6 7 0 0
BITMAP
7C
84
80
F0
80
84
78
ENDCHAR

STARTCHAR afii10054
ENCODING 165
SWIDTH 594 0
DWIDTH 6 0
BBX 5 7 0 0
BITMAP
70
88
80
70
08
88
70
ENDCHAR

STARTCHAR afii10055
ENCODING 166
SWIDTH 375 0
DWIDTH 4 0
BBX 3 7 0 0
BITMAP
E0
40
40
40
40
40
E0
ENDCHAR

STARTCHAR afii10056
ENCODING 167
SWIDTH 375 0
DWIDTH 4 0
BBX 3 9 0 0
BITMAP
A0
00
E0
40
40
40
40
40
E0
ENDCHAR

STARTCHAR afii10057
ENCODING 168
SWIDTH 354 0
DWIDTH 4 0
BBX 4 9 -1 -2
BITMAP
70
20
20
20
20
20
20
20
C0
ENDCHAR

STARTCHAR afii10058
ENCODING 169
SWIDTH 986 0
DWIDTH 10 0
BBX 10 7 0 0
BITMAP
7E00
2400
2400
2780
2440
2440
CF80
ENDCHAR

STARTCHAR afii10059
ENCODING 170
SWIDTH 1015 0
DWIDTH 10 0
BBX 10 7 0 0
BITMAP
EE00
4400
4400
7F80
4440
4440
EF80
ENDCHAR

STARTCHAR afii10060
ENCODING 171
SWIDTH 823 0
DWIDTH 8 0
BBX 7 7 0 0
BITMAP
F8
A8
20
38
24
24
76
ENDCHAR

STARTCHAR afii10061
ENCODING 172
SWIDTH 750 0
DWIDTH 8 0
BBX 7 10 0 0
BITMAP
08
10
00
E6
48
48
70
48
44
E6
ENDCHAR

STARTCHAR hyphen
ENCODING 173
SWIDTH 365 0
DWIDTH 4 0
BBX 3 1 0 2
BITMAP
E0
ENDCHAR

STARTCHAR afii10062
ENCODING 174
SWIDTH 750 0
DWIDTH 8 0
BBX 8 10 0 0
BITMAP
24
18
00
E7
42
24
14
08
10
60
ENDCHAR

STARTCHAR afii10145
ENCODING 175
SWIDTH 854 0
DWIDTH 9 0
BBX 8 9 0 -2
BITMAP
E7
42
42
42
42
42
FF
10
10
ENDCHAR

STARTCHAR afii10017
ENCODING 176
SWIDTH 719 0
DWIDTH 6 0
BBX 7 7 -1 0
BITMAP
10
10
28
38
44
44
EE
ENDCHAR

STARTCHAR afii10018
ENCODING 177
SWIDTH 656 0
DWIDTH 7 0
BBX 6 7 0 0
BITMAP
FC
44
40
78
44
44
F8
ENDCHAR

STARTCHAR afii10019
ENCODING 178
SWIDTH 688 0
DWIDTH 7 0
BBX 6 7 0 0
BITMAP
F8
44
44
78
44
44
F8
ENDCHAR

STARTCHAR afii10020
ENCODING 179
SWIDTH 635 0
DWIDTH 6 0
BBX 6 7 0 0
BITMAP
FC
44
40
40
40
40
E0
ENDCHAR

STARTCHAR afii10021
ENCODING 180
SWIDTH 792 0
DWIDTH 9 0
BBX 8 9 0 -2
BITMAP
7F
22
22
22
42
42
FF
81
81
ENDCHAR

STARTCHAR afii10022
ENCODING 181
SWIDTH 677 0
DWIDTH 7 0
BBX 6 7 0 0
BITMAP
FC
44
40
78
40
44
FC
ENDCHAR

STARTCHAR afii10024
ENCODING 182
SWIDTH 1031 0
DWIDTH 11 0
BBX 11 7 0 0
BITMAP
CE60
2480
2480
1F00
1500
2480
CE60
ENDCHAR

STARTCHAR afii10025
ENCODING 183
SWIDTH 667 0
DWIDTH 7 0
BBX 5 7 1 0
BITMAP
F0
88
08
70
08
88
70
ENDCHAR

STARTCHAR afii10026
ENCODING 184
SWIDTH 854 0
DWIDTH 9 0
BBX 8 7 0 0
BITMAP
E7
46
4A
52
62
42
E7
ENDCHAR

STARTCHAR afii10027
ENCODING 185
SWIDTH 854 0
DWIDTH 9 0
BBX 8 10 0 0
BITMAP
24
18
00
E7
46
4A
52
62
42
E7
ENDCHAR

STARTCHAR afii10028
ENCODING 186
SWIDTH 750 0
DWIDTH 8 0
BBX 7 7 0 0
BITMAP
E6
48
48
70
48
44
E6
ENDCHAR

STARTCHAR afii10029
ENCODING 187
SWIDTH 760 0
DWIDTH 8 0
BBX 7 7 0 0
BITMAP
7E
24
24
24
24
24
CE
ENDCHAR

STARTCHAR afii10030
ENCODING 188
SWIDTH 1010 0
DWIDTH 10 0
BBX 9 7 0 0
BITMAP
C180
6300
6300
5500
5500
4900
EB80
ENDCHAR

STARTCHAR afii10031
ENCODING 189
SWIDTH 854 0
DWIDTH 9 0
BBX 8 7 0 0
BITMAP
E7
42
42
7E
42
42
E7
ENDCHAR

STARTCHAR afii10032
ENCODING 190
SWIDTH 813 0
DWIDTH 8 0
BBX 7 7 0 0
BITMAP
38
44
82
82
82
44
38
ENDCHAR

STARTCHAR afii10033
ENCODING 191
SWIDTH 854 0
DWIDTH 9 0
BBX 8 7 0 0
BITMAP
FF
42
42
42
42
42
E7
ENDCHAR

STARTCHAR afii10034
ENCODING 192
SWIDTH 635 0
DWIDTH 7 0
BBX 6 7 0 0
BITMAP
F8
44
44
58
40
40
E0
ENDCHAR

STARTCHAR afii10035
ENCODING 193
SWIDTH 781 0
DWIDTH 8 0
BBX 7 7 0 0
BITMAP
3C
42
80
80
80
42
3C
ENDCHAR

STARTCHAR afii10036
ENCODING 194
SWIDTH 760 0
DWIDTH 8 0
BBX 7 7 0 0
BITMAP
FE
92
10
10
10
10
38
ENDCHAR

STARTCHAR afii10037
ENCODING 195
SWIDTH 750 0
DWIDTH 8 0
BBX 8 7 0 0
BITMAP
E7
42
24
14
08
10
60
ENDCHAR

STARTCHAR afii10038
ENCODING 196
SWIDTH 974 0
DWIDTH 10 0
BBX 9 7 0 0
BITMAP
1C00
7F00
8880
8880
8880
7F00
1C00
ENDCHAR

STARTCHAR afii10039
ENCODING 197
SWIDTH 781 0
DWIDTH 8 0
BBX 7 7 0 0
BITMAP
EE
44
28
10
28
44
EE
ENDCHAR

STARTCHAR afii10040
ENCODING 198
SWIDTH 854 0
DWIDTH 9 0
BBX 8 9 0 -2
BITMAP
E7
42
42
42
42
42
FF
01
01
ENDCHAR

STARTCHAR afii10041
ENCODING 199
SWIDTH 854 0
DWIDTH 9 0
BBX 8 7 0 0
BITMAP
E7
42
42
46
3A
02
07
ENDCHAR

STARTCHAR afii10042
ENCODING 200
SWIDTH 1052 0
DWIDTH 11 0
BBX 11 7 0 0
BITMAP
EEE0
4440
4440
4440
4440
4440
FFE0
ENDCHAR

STARTCHAR afii10043
ENCODING 201
SWIDTH 1052 0
DWIDTH 11 0
BBX 11 9 0 -2
BITMAP
EEE0
4440
4440
4440
4440
4440
FFE0
0020
0020
ENDCHAR

STARTCHAR afii10044
ENCODING 202
SWIDTH 775 0
DWIDTH 8 0
BBX 8 7 0 0
BITMAP
F8
90
10
1E
11
11
3E
ENDCHAR

STARTCHAR afii10045
ENCODING 203
SWIDTH 1031 0
DWIDTH 10 0
BBX 10 7 0 0
BITMAP
E1C0
4080
4080
7880
4480
4480
F9C0
ENDCHAR

STARTCHAR afii10046
ENCODING 204
SWIDTH 632 0
DWIDTH 6 0
BBX 6 7 0 0
BITMAP
E0
40
40
78
44
44
F8
ENDCHAR

STARTCHAR afii10047
ENCODING 205
SWIDTH 719 0
DWIDTH 7 0
BBX 6 7 0 0
BITMAP
F8
84
04
3C
04
84
78
ENDCHAR

STARTCHAR afii10048
ENCODING 206
SWIDTH 1177 0
DWIDTH 12 0
BBX 11 7 0 0
BITMAP
E380
4440
4820
7820
4820
4440
E380
ENDCHAR

STARTCHAR afii10049
ENCODING 207
SWIDTH 740 0
DWIDTH 7 0
BBX 7 7 0 0
BITMAP
3E
44
44
3C
14
24
CE
ENDCHAR

STARTCHAR afii10065
ENCODING 208
SWIDTH 479 0
DWIDTH 5 0
BBX 5 5 0 0
BITMAP
60
10
70
B0
D8
ENDCHAR

STARTCHAR afii10066
ENCODING 209
SWIDTH 542 0
DWIDTH 5 0
BBX 4 8 0 0
BITMAP
10
60
80
E0
90
90
90
60
ENDCHAR

STARTCHAR afii10067
ENCODING 210
SWIDTH 552 0
DWIDTH 6 0
BBX 5 5 0 0
BITMAP
F0
48
70
48
F0
ENDCHAR

STARTCHAR afii10068
ENCODING 211
SWIDTH 438 0
DWIDTH 4 0
BBX 5 5 0 0
BITMAP
F8
48
40
40
E0
ENDCHAR

STARTCHAR afii10069
ENCODING 212
SWIDTH 542 0
DWIDTH 6 0
BBX 6 6 0 -1
BITMAP
7C
28
28
48
FC
84
ENDCHAR

STARTCHAR afii10070
ENCODING 213
SWIDTH 469 0
DWIDTH 5 0
BBX 4 5 0 0
BITMAP
60
90
F0
80
70
ENDCHAR

STARTCHAR afii10072
ENCODING 214
SWIDTH 854 0
DWIDTH 9 0
BBX 9 5 0 0
BITMAP
DD80
4900
3E00
4900
DD80
ENDCHAR

STARTCHAR afii10073
ENCODING 215
SWIDTH 469 0
DWIDTH 5 0
BBX 4 5 0 0
BITMAP
E0
10
60
10
E0
ENDCHAR

STARTCHAR afii10074
ENCODING 216
SWIDTH 583 0
DWIDTH 6 0
BBX 6 5 0 0
BITMAP
CC
58
68
48
EC
ENDCHAR

STARTCHAR afii10075
ENCODING 217
SWIDTH 583 0
DWIDTH 6 0
BBX 6 8 0 0
BITMAP
48
30
00
CC
58
68
48
EC
ENDCHAR

STARTCHAR afii10076
ENCODING 218
SWIDTH 573 0
DWIDTH 6 0
BBX 6 5 0 0
BITMAP
EC
48
70
48
EC
ENDCHAR

STARTCHAR afii10077
ENCODING 219
SWIDTH 573 0
DWIDTH 6 0
BBX 6 5 0 0
BITMAP
FC
48
48
48
9C
ENDCHAR

STARTCHAR afii10078
ENCODING 220
SWIDTH 625 0
DWIDTH 7 0
BBX 7 5 0 0
BITMAP
EE
6C
54
54
D6
ENDCHAR

STARTCHAR afii10079
ENCODING 221
SWIDTH 563 0
DWIDTH 6 0
BBX 6 5 0 0
BITMAP
EC
48
78
48
DC
ENDCHAR

STARTCHAR afii10080
ENCODING 222
SWIDTH 542 0
DWIDTH 5 0
BBX 4 5 0 0
BITMAP
60
90
90
90
60
ENDCHAR

STARTCHAR afii10081
ENCODING 223
SWIDTH 573 0
DWIDTH 6 0
BBX 6 5 0 0
BITMAP
FC
48
48
48
EC
ENDCHAR

STARTCHAR afii10082
ENCODING 224
SWIDTH 562 0
DWIDTH 6 0
BBX 5 7 0 -2
BITMAP
F0
48
48
48
70
40
E0
ENDCHAR

STARTCHAR afii10083
ENCODING 225
SWIDTH 469 0
DWIDTH 5 0
BBX 4 5 0 0
BITMAP
70
90
80
90
60
ENDCHAR

STARTCHAR afii10084
ENCODING 226
SWIDTH 458 0
DWIDTH 5 0
BBX 5 5 0 0
BITMAP
F8
A8
20
20
70
ENDCHAR

STARTCHAR afii10085
ENCODING 227
SWIDTH 479 0
DWIDTH 5 0
BBX 5 7 0 -2
BITMAP
D8
50
50
20
20
20
C0
ENDCHAR

STARTCHAR afii10086
ENCODING 228
SWIDTH 750 0
DWIDTH 8 0
BBX 7 9 0 -2
BITMAP
10
30
10
7C
92
92
7C
10
38
ENDCHAR

STARTCHAR afii10087
ENCODING 229
SWIDTH 500 0
DWIDTH 6 0
BBX 5 5 0 0
BITMAP
D8
50
20
50
D8
ENDCHAR

STARTCHAR afii10088
ENCODING 230
SWIDTH 573 0
DWIDTH 6 0
BBX 6 6 0 -1
BITMAP
EC
48
48
48
FC
04
ENDCHAR

STARTCHAR afii10089
ENCODING 231
SWIDTH 573 0
DWIDTH 6 0
BBX 6 5 0 0
BITMAP
EC
48
38
08
1C
ENDCHAR

STARTCHAR afii10090
ENCODING 232
SWIDTH 854 0
DWIDTH 9 0
BBX 9 5 0 0
BITMAP
ED80
4900
4900
4900
FF80
ENDCHAR

STARTCHAR afii10091
ENCODING 233
SWIDTH 854 0
DWIDTH 9 0
BBX 9 6 0 -1
BITMAP
ED80
4900
4900
4900
FF80
0080
ENDCHAR

STARTCHAR afii10092
ENCODING 234
SWIDTH 638 0
DWIDTH 7 0
BBX 6 5 0 0
BITMAP
F0
A0
38
24
78
ENDCHAR

STARTCHAR afii10093
ENCODING 235
SWIDTH 792 0
DWIDTH 8 0
BBX 8 5 0 0
BITMAP
E7
42
72
4A
F7
ENDCHAR

STARTCHAR afii10094
ENCODING 236
SWIDTH 485 0
DWIDTH 5 0
BBX 5 5 0 0
BITMAP
E0
40
70
48
F0
ENDCHAR

STARTCHAR afii10095
ENCODING 237
SWIDTH 490 0
DWIDTH 5 0
BBX 4 5 0 0
BITMAP
60
90
30
90
60
ENDCHAR

STARTCHAR afii10096
ENCODING 238
SWIDTH 813 0
DWIDTH 9 0
BBX 8 5 0 0
BITMAP
E6
49
79
49
E6
ENDCHAR

STARTCHAR afii10097
ENCODING 239
SWIDTH 563 0
DWIDTH 6 0
BBX 6 5 0 0
BITMAP
3C
48
38
48
CC
ENDCHAR

STARTCHAR afii61352
ENCODING 240
SWIDTH 1031 0
DWIDTH 10 0
BBX 10 7 0 0
BITMAP
C600
4400
6480
5540
4C80
4400
C5C0
ENDCHAR

STARTCHAR afii10071
ENCODING 241
SWIDTH 469 0
DWIDTH 5 0
BBX 4 7 0 0
BITMAP
50
00
60
90
F0
80
70
ENDCHAR

STARTCHAR afii10099
ENCODING 242
SWIDTH 513 0
DWIDTH 6 0
BBX 5 9 0 -2
BITMAP
40
E0
50
68
48
48
C8
08
10
ENDCHAR

STARTCHAR afii10100
ENCODING 243
SWIDTH 458 0
DWIDTH 5 0
BBX 5 8 0 0
BITMAP
10
20
00
F8
48
40
40
E0
ENDCHAR

STARTCHAR afii10101
ENCODING 244
SWIDTH 490 0
DWIDTH 5 0
BBX 4 5 0 0
BITMAP
60
90
C0
90
60
ENDCHAR

STARTCHAR afii10102
ENCODING 245
SWIDTH 396 0
DWIDTH 4 0
BBX 3 5 0 0
BITMAP
60
80
40
20
C0
ENDCHAR

STARTCHAR afii10103
ENCODING 246
SWIDTH 271 0
DWIDTH 3 0
BBX 3 7 0 0
BITMAP
40
00
C0
40
40
40
E0
ENDCHAR

STARTCHAR afii10104
ENCODING 247
SWIDTH 271 0
DWIDTH 3 0
BBX 3 7 0 0
BITMAP
A0
00
C0
40
40
40
E0
ENDCHAR

STARTCHAR afii10105
ENCODING 248
SWIDTH 260 0
DWIDTH 3 0
BBX 2 9 0 -2
BITMAP
40
00
C0
40
40
40
40
40
80
ENDCHAR

STARTCHAR afii10106
ENCODING 249
SWIDTH 831 0
DWIDTH 8 0
BBX 8 5 0 0
BITMAP
FC
48
4E
49
9E
ENDCHAR

STARTCHAR afii10107
ENCODING 250
SWIDTH 814 0
DWIDTH 8 0
BBX 8 5 0 0
BITMAP
EC
48
7E
49
EE
ENDCHAR

STARTCHAR afii10108
ENCODING 251
SWIDTH 573 0
DWIDTH 6 0
BBX 6 7 0 0
BITMAP
40
F0
40
70
48
48
EC
ENDCHAR

STARTCHAR afii10109
ENCODING 252
SWIDTH 573 0
DWIDTH 6 0
BBX 6 5 0 0
BITMAP
EC
48
70
48
EC
ENDCHAR

STARTCHAR section
ENCODING 253
SWIDTH 427 0
DWIDTH 4 0
BBX 4 9 0 -2
BITMAP
30
40
A0
A0
50
50
30
20
C0
ENDCHAR

STARTCHAR afii10110
ENCODING 254
SWIDTH 479 0
DWIDTH 5 0
BBX 5 10 0 -2
BITMAP
48
30
00
D8
50
50
20
20
20
C0
ENDCHAR

STARTCHAR afii10193
ENCODING 255
SWIDTH 573 0
DWIDTH 6 0
BBX 6 6 0 -1
BITMAP
DC
48
48
48
FC
20
ENDCHAR
ENDFONT
